<svg width="15" height="16" viewBox="0 0 15 16" fill="none" xmlns="http://www.w3.org/2000/svg">
<g clip-path="url(#clip0_1502_424)">
<path d="M3.0468 15.0316H2.1093C1.92282 15.0316 1.74397 14.9575 1.61211 14.8257C1.48025 14.6938 1.40617 14.515 1.40617 14.3285V10.1097C1.40617 9.92326 1.48025 9.74442 1.61211 9.61256C1.74397 9.4807 1.92282 9.40662 2.1093 9.40662H3.0468C3.23328 9.40662 3.41212 9.4807 3.54398 9.61256C3.67584 9.74442 3.74992 9.92326 3.74992 10.1097V14.3285C3.74992 14.515 3.67584 14.6938 3.54398 14.8257C3.41212 14.9575 3.23328 15.0316 3.0468 15.0316V15.0316Z" fill="#4FD1C5"/>
<path d="M9.60932 15.0308H8.67183C8.48534 15.0308 8.3065 14.9567 8.17464 14.8249C8.04278 14.693 7.9687 14.5142 7.9687 14.3277V7.29645C7.9687 7.10997 8.04278 6.93112 8.17464 6.79926C8.3065 6.6674 8.48534 6.59332 8.67183 6.59332H9.60932C9.79581 6.59332 9.97465 6.6674 10.1065 6.79926C10.2384 6.93112 10.3124 7.10997 10.3124 7.29645V14.3277C10.3124 14.5142 10.2384 14.693 10.1065 14.8249C9.97465 14.9567 9.79581 15.0308 9.60932 15.0308V15.0308Z" fill="#4FD1C5"/>
<path d="M12.8906 15.0311H11.9531C11.7666 15.0311 11.5877 14.957 11.4559 14.8252C11.324 14.6933 11.2499 14.5145 11.2499 14.328V4.0155C11.2499 3.82902 11.324 3.65018 11.4559 3.51832C11.5877 3.38646 11.7666 3.31238 11.9531 3.31238H12.8906C13.077 3.31238 13.2559 3.38646 13.3877 3.51832C13.5196 3.65018 13.5937 3.82902 13.5937 4.0155V14.328C13.5937 14.5145 13.5196 14.6933 13.3877 14.8252C13.2559 14.957 13.077 15.0311 12.8906 15.0311V15.0311Z" fill="#4FD1C5"/>
<path d="M6.32806 15.031H5.39056C5.20408 15.031 5.02524 14.9569 4.89338 14.8251C4.76152 14.6932 4.68744 14.5144 4.68744 14.3279V1.67163C4.68744 1.48515 4.76152 1.30631 4.89338 1.17445C5.02524 1.04258 5.20408 0.968506 5.39056 0.968506H6.32806C6.51454 0.968506 6.69338 1.04258 6.82525 1.17445C6.95711 1.30631 7.03119 1.48515 7.03119 1.67163V14.3279C7.03119 14.5144 6.95711 14.6932 6.82525 14.8251C6.69338 14.9569 6.51454 15.031 6.32806 15.031V15.031Z" fill="#4FD1C5"/>
</g>
<defs>
<clipPath id="clip0_1502_424">
<rect width="15" height="15" fill="white" transform="translate(-4.57764e-05 0.5)"/>
</clipPath>
</defs>
</svg>
