<svg width="15" height="16" viewBox="0 0 15 16" fill="none" xmlns="http://www.w3.org/2000/svg">
<path d="M12.539 7.06262H8.43747C8.06451 7.06262 7.70682 6.91446 7.4431 6.65074C7.17938 6.38702 7.03122 6.02933 7.03122 5.65637V1.55481C7.03122 1.52373 7.01887 1.49392 6.9969 1.47195C6.97492 1.44997 6.94511 1.43762 6.91403 1.43762H4.21872C3.72144 1.43762 3.24453 1.63517 2.8929 1.9868C2.54127 2.33843 2.34372 2.81534 2.34372 3.31262V12.6876C2.34372 13.1849 2.54127 13.6618 2.8929 14.0134C3.24453 14.3651 3.72144 14.5626 4.21872 14.5626H10.7812C11.2785 14.5626 11.7554 14.3651 12.107 14.0134C12.4587 13.6618 12.6562 13.1849 12.6562 12.6876V7.17981C12.6562 7.14873 12.6439 7.11892 12.6219 7.09694C12.5999 7.07497 12.5701 7.06262 12.539 7.06262Z" fill="#4FD1C5"/>
<path d="M12.2818 6.026L8.06862 1.81282C8.06043 1.80467 8.05001 1.79913 8.03868 1.79689C8.02734 1.79465 8.0156 1.79581 8.00492 1.80022C7.99425 1.80464 7.98511 1.81211 7.97867 1.8217C7.97223 1.83129 7.96877 1.84257 7.96872 1.85412V5.65715C7.96872 5.78147 8.01811 5.9007 8.10601 5.98861C8.19392 6.07652 8.31315 6.1259 8.43747 6.1259H12.2405C12.252 6.12585 12.2633 6.12239 12.2729 6.11595C12.2825 6.10951 12.29 6.10037 12.2944 6.0897C12.2988 6.07902 12.3 6.06728 12.2977 6.05594C12.2955 6.04461 12.2899 6.03419 12.2818 6.026Z" fill="#4FD1C5"/>
</svg>
